<svg width="206" height="231" viewBox="0 0 206 231" fill="none" xmlns="http://www.w3.org/2000/svg">
<path d="M143.143 84C143.143 96.1503 133.293 106 121.143 106C108.992 106 99.1426 96.1503 99.1426 84C99.1426 71.8497 108.992 62 121.143 62C133.293 62 143.143 71.8497 143.143 84Z" fill="#FFC131"/>
<ellipse cx="84.1426" cy="147" rx="22" ry="22" transform="rotate(180 84.1426 147)" fill="#24C8DB"/>
<path fill-rule="evenodd" clip-rule="evenodd" d="M166.738 154.548C157.86 170.286 143.023 181.82 125.806 185.996C108.589 190.172 90.335 186.611 76.2846 175.77C62.2342 164.928 53.4417 148.54 51.6021 130.709C49.7625 112.878 54.9988 94.9058 66.2362 80.4886C77.4735 66.0714 93.6226 56.4086 111.392 53.3078C129.162 50.207 147.418 54.0009 162.036 63.8421C176.654 73.6833 186.618 88.7014 189.901 105.778C193.185 122.854 189.563 140.605 179.706 155.419L166.738 154.548Z" stroke="#FFC131" stroke-width="10" stroke-linecap="round"/>
<path fill-rule="evenodd" clip-rule="evenodd" d="M39.9429 61.3685C48.8207 45.6307 63.6579 34.0963 80.8747 29.9202C98.0915 25.7441 116.345 29.3051 130.395 40.1466C144.446 50.9881 153.238 67.3762 155.078 85.2069C156.917 103.038 151.681 120.01 140.444 134.427C129.206 148.845 113.057 158.507 95.2877 161.608C77.5181 164.709 59.2617 160.915 44.6435 151.074C30.0253 141.233 20.0615 126.214 16.7779 109.138C13.4943 92.0614 17.1162 74.3099 26.9729 59.4967L39.9429 61.3685Z" stroke="#24C8DB" stroke-width="10" stroke-linecap="round"/>
</svg>